<svg width="30" height="30" viewBox="0 0 30 30" fill="none" xmlns="http://www.w3.org/2000/svg">
<g clip-path="url(#clip0_1_3)">
<path d="M15 30C23.2843 30 30 23.2843 30 15C30 6.71573 23.2843 0 15 0C6.71573 0 0 6.71573 0 15C0 23.2843 6.71573 30 15 30Z" fill="#31AF91"/>
<path d="M12.7266 22.7812L5.8125 15.8672C5.71875 15.7734 5.71875 15.6328 5.8125 15.5391L7.80469 13.5469C7.89844 13.4531 8.03906 13.4531 8.13281 13.5469L12.8906 18.3047L21.8437 9.35156C21.9375 9.25781 22.0781 9.25781 22.1719 9.35156L24.1641 11.3437C24.2578 11.4375 24.2578 11.5781 24.1641 11.6719L13.0547 22.7812C12.9609 22.875 12.8203 22.875 12.7266 22.7812Z" fill="#333333"/>
</g>
<defs>
<clipPath id="clip0_1_3">
<rect width="30" height="30" fill="white"/>
</clipPath>
</defs>
</svg>
