<svg width="24" height="15" viewBox="0 0 24 15" fill="none" xmlns="http://www.w3.org/2000/svg">
<g clip-path="url(#clip0_776_813)">
<path d="M24 0.5H0V14.5H24V0.5Z" fill="#B22234"/>
<path d="M0 2.11523H24ZM24 4.26908H0ZM0 6.42293H24ZM24 8.57677H0ZM0 10.7306H24ZM24 12.8845H0Z" fill="black"/>
<path fill-rule="evenodd" clip-rule="evenodd" d="M24 2.65407H0V1.57715H24V2.65407ZM0 3.73099H24V4.80792H0V3.73099ZM24 6.96176H0V5.88484H24V6.96176ZM0 8.03869H24V9.11561H0V8.03869ZM24 11.2695H0V10.1925H24V11.2695ZM0 12.3464H24V13.4233H0V12.3464Z" fill="white"/>
<path d="M9.6 0.5H0V8.03846H9.6V0.5Z" fill="#3C3B6E"/>
<path d="M0.799939 0.823242L1.02839 1.60251L0.430298 1.1209H1.16958L0.571488 1.60251L0.799939 0.823242Z" fill="white"/>
<path d="M0.799939 2.33105L1.02839 3.11032L0.430298 2.62871H1.16958L0.571488 3.11032L0.799939 2.33105Z" fill="white"/>
<path d="M0.799939 3.83887L1.02839 4.61814L0.430298 4.13652H1.16958L0.571488 4.61814L0.799939 3.83887Z" fill="white"/>
<path d="M0.799939 5.34619L1.02839 6.12546L0.430298 5.64385H1.16958L0.571488 6.12546L0.799939 5.34619Z" fill="white"/>
<path d="M0.799939 6.854L1.02839 7.63327L0.430298 7.15166H1.16958L0.571488 7.63327L0.799939 6.854Z" fill="white"/>
<path d="M1.59999 1.57715L1.82844 2.35642L1.23035 1.8748H1.96963L1.37154 2.35642L1.59999 1.57715Z" fill="white"/>
<path d="M1.59999 3.08496L1.82844 3.86423L1.23035 3.38262H1.96963L1.37154 3.86423L1.59999 3.08496Z" fill="white"/>
<path d="M1.59999 4.59277L1.82844 5.37204L1.23035 4.89043H1.96963L1.37154 5.37204L1.59999 4.59277Z" fill="white"/>
<path d="M1.59999 6.1001L1.82844 6.87937L1.23035 6.39775H1.96963L1.37154 6.87937L1.59999 6.1001Z" fill="white"/>
<path d="M2.39991 0.823242L2.62837 1.60251L2.03027 1.1209H2.76956L2.17146 1.60251L2.39991 0.823242Z" fill="white"/>
<path d="M2.39991 2.33105L2.62837 3.11032L2.03027 2.62871H2.76956L2.17146 3.11032L2.39991 2.33105Z" fill="white"/>
<path d="M2.39991 3.83887L2.62837 4.61814L2.03027 4.13652H2.76956L2.17146 4.61814L2.39991 3.83887Z" fill="white"/>
<path d="M2.39991 5.34619L2.62837 6.12546L2.03027 5.64385H2.76956L2.17146 6.12546L2.39991 5.34619Z" fill="white"/>
<path d="M2.39991 6.854L2.62837 7.63327L2.03027 7.15166H2.76956L2.17146 7.63327L2.39991 6.854Z" fill="white"/>
<path d="M3.19996 1.57715L3.42841 2.35642L2.83032 1.8748H3.5696L2.97151 2.35642L3.19996 1.57715Z" fill="white"/>
<path d="M3.19996 3.08496L3.42841 3.86423L2.83032 3.38262H3.5696L2.97151 3.86423L3.19996 3.08496Z" fill="white"/>
<path d="M3.19996 4.59277L3.42841 5.37204L2.83032 4.89043H3.5696L2.97151 5.37204L3.19996 4.59277Z" fill="white"/>
<path d="M3.19996 6.1001L3.42841 6.87937L2.83032 6.39775H3.5696L2.97151 6.87937L3.19996 6.1001Z" fill="white"/>
<path d="M3.99989 0.823242L4.22834 1.60251L3.63025 1.1209H4.36953L3.77144 1.60251L3.99989 0.823242Z" fill="white"/>
<path d="M3.99989 2.33105L4.22834 3.11032L3.63025 2.62871H4.36953L3.77144 3.11032L3.99989 2.33105Z" fill="white"/>
<path d="M3.99989 3.83887L4.22834 4.61814L3.63025 4.13652H4.36953L3.77144 4.61814L3.99989 3.83887Z" fill="white"/>
<path d="M3.99989 5.34619L4.22834 6.12546L3.63025 5.64385H4.36953L3.77144 6.12546L3.99989 5.34619Z" fill="white"/>
<path d="M3.99989 6.854L4.22834 7.63327L3.63025 7.15166H4.36953L3.77144 7.63327L3.99989 6.854Z" fill="white"/>
<path d="M4.79994 1.57715L5.02839 2.35642L4.4303 1.8748H5.16958L4.57149 2.35642L4.79994 1.57715Z" fill="white"/>
<path d="M4.79994 3.08496L5.02839 3.86423L4.4303 3.38262H5.16958L4.57149 3.86423L4.79994 3.08496Z" fill="white"/>
<path d="M4.79994 4.59277L5.02839 5.37204L4.4303 4.89043H5.16958L4.57149 5.37204L4.79994 4.59277Z" fill="white"/>
<path d="M4.79994 6.1001L5.02839 6.87937L4.4303 6.39775H5.16958L4.57149 6.87937L4.79994 6.1001Z" fill="white"/>
<path d="M5.59987 0.823242L5.82832 1.60251L5.23022 1.1209H5.96951L5.37142 1.60251L5.59987 0.823242Z" fill="white"/>
<path d="M5.59987 2.33105L5.82832 3.11032L5.23022 2.62871H5.96951L5.37142 3.11032L5.59987 2.33105Z" fill="white"/>
<path d="M5.59987 3.83887L5.82832 4.61814L5.23022 4.13652H5.96951L5.37142 4.61814L5.59987 3.83887Z" fill="white"/>
<path d="M5.59987 5.34619L5.82832 6.12546L5.23022 5.64385H5.96951L5.37142 6.12546L5.59987 5.34619Z" fill="white"/>
<path d="M5.59987 6.854L5.82832 7.63327L5.23022 7.15166H5.96951L5.37142 7.63327L5.59987 6.854Z" fill="white"/>
<path d="M6.39991 1.57715L6.62837 2.35642L6.03027 1.8748H6.76956L6.17146 2.35642L6.39991 1.57715Z" fill="white"/>
<path d="M6.39991 3.08496L6.62837 3.86423L6.03027 3.38262H6.76956L6.17146 3.86423L6.39991 3.08496Z" fill="white"/>
<path d="M6.39991 4.59277L6.62837 5.37204L6.03027 4.89043H6.76956L6.17146 5.37204L6.39991 4.59277Z" fill="white"/>
<path d="M6.39991 6.1001L6.62837 6.87937L6.03027 6.39775H6.76956L6.17146 6.87937L6.39991 6.1001Z" fill="white"/>
<path d="M7.19996 0.823242L7.42841 1.60251L6.83032 1.1209H7.5696L6.97151 1.60251L7.19996 0.823242Z" fill="white"/>
<path d="M7.19996 2.33105L7.42841 3.11032L6.83032 2.62871H7.5696L6.97151 3.11032L7.19996 2.33105Z" fill="white"/>
<path d="M7.19996 3.83887L7.42841 4.61814L6.83032 4.13652H7.5696L6.97151 4.61814L7.19996 3.83887Z" fill="white"/>
<path d="M7.19996 5.34619L7.42841 6.12546L6.83032 5.64385H7.5696L6.97151 6.12546L7.19996 5.34619Z" fill="white"/>
<path d="M7.19996 6.854L7.42841 7.63327L6.83032 7.15166H7.5696L6.97151 7.63327L7.19996 6.854Z" fill="white"/>
<path d="M8.00001 1.57715L8.22846 2.35642L7.63037 1.8748H8.36965L7.77156 2.35642L8.00001 1.57715Z" fill="white"/>
<path d="M8.00001 3.08496L8.22846 3.86423L7.63037 3.38262H8.36965L7.77156 3.86423L8.00001 3.08496Z" fill="white"/>
<path d="M8.00001 4.59277L8.22846 5.37204L7.63037 4.89043H8.36965L7.77156 5.37204L8.00001 4.59277Z" fill="white"/>
<path d="M8.00001 6.1001L8.22846 6.87937L7.63037 6.39775H8.36965L7.77156 6.87937L8.00001 6.1001Z" fill="white"/>
<path d="M8.79994 0.823242L9.02839 1.60251L8.4303 1.1209H9.16958L8.57149 1.60251L8.79994 0.823242Z" fill="white"/>
<path d="M8.79994 2.33105L9.02839 3.11032L8.4303 2.62871H9.16958L8.57149 3.11032L8.79994 2.33105Z" fill="white"/>
<path d="M8.79994 3.83887L9.02839 4.61814L8.4303 4.13652H9.16958L8.57149 4.61814L8.79994 3.83887Z" fill="white"/>
<path d="M8.79994 5.34619L9.02839 6.12546L8.4303 5.64385H9.16958L8.57149 6.12546L8.79994 5.34619Z" fill="white"/>
<path d="M8.79994 6.854L9.02839 7.63327L8.4303 7.15166H9.16958L8.57149 7.63327L8.79994 6.854Z" fill="white"/>
</g>
<defs>
<clipPath id="clip0_776_813">
<rect y="0.5" width="24" height="14" rx="2" fill="white"/>
</clipPath>
</defs>
</svg>
