<svg width="30" height="15" viewBox="0 0 30 15" fill="none" xmlns="http://www.w3.org/2000/svg">
<g clip-path="url(#clip0_776_990)">
<path d="M0 0.5H7.5L7.80938 0.78875H22.1906L22.5 0.5H30V14.5H22.5L22.1906 14.2113H7.80938L7.5 14.5H0V0.5Z" fill="#D52B1E"/>
<path d="M7.5 0.5H22.5V14.5H7.5V0.5ZM15.2813 13.4208L15.1406 10.9038C15.1386 10.8624 15.1465 10.8211 15.1638 10.7829C15.1811 10.7447 15.2074 10.7107 15.2407 10.6833C15.274 10.6559 15.3134 10.6357 15.3561 10.6244C15.3989 10.6131 15.4437 10.6109 15.4875 10.6179L18.1719 11.0583L17.8094 10.125C17.7947 10.0879 17.7928 10.0474 17.804 10.0092C17.8152 9.97099 17.8389 9.93704 17.8719 9.91208L20.8125 7.68958L20.15 7.40083C20.1053 7.3811 20.0698 7.3468 20.0502 7.30437C20.0306 7.26194 20.0283 7.21431 20.0438 7.17042L20.625 5.50208L18.9313 5.8375C18.8854 5.84643 18.8376 5.84027 18.796 5.82007C18.7544 5.79987 18.7216 5.76687 18.7031 5.72667L18.375 5.00625L17.0531 6.33042C17.0229 6.36017 16.9832 6.37998 16.9398 6.38687C16.8965 6.39376 16.852 6.38736 16.8129 6.36863C16.7738 6.3499 16.7423 6.31985 16.7231 6.28298C16.7039 6.24612 16.698 6.20443 16.7063 6.16417L17.3438 3.09583L16.3219 3.64708C16.2979 3.66021 16.2713 3.66859 16.2437 3.67172C16.216 3.67485 16.188 3.67266 16.1614 3.66527C16.1347 3.65789 16.11 3.64548 16.0887 3.6288C16.0674 3.61213 16.0499 3.59155 16.0375 3.56833L15 1.66667L13.9625 3.56833C13.9501 3.59155 13.9326 3.61213 13.9113 3.6288C13.89 3.64548 13.8653 3.65789 13.8386 3.66527C13.812 3.67266 13.784 3.67485 13.7563 3.67172C13.7287 3.66859 13.7021 3.66021 13.6781 3.64708L12.6563 3.09583L13.2938 6.16417C13.302 6.20443 13.2961 6.24612 13.2769 6.28298C13.2577 6.31985 13.2262 6.3499 13.1871 6.36863C13.148 6.38736 13.1035 6.39376 13.0602 6.38687C13.0168 6.37998 12.9771 6.36017 12.9469 6.33042L11.625 5.00625L11.2969 5.72667C11.2784 5.76687 11.2456 5.79987 11.204 5.82007C11.1624 5.84027 11.1146 5.84643 11.0688 5.8375L9.375 5.50208L9.95625 7.17042C9.97165 7.21431 9.96936 7.26194 9.94979 7.30437C9.93023 7.3468 9.89474 7.3811 9.85 7.40083L9.1875 7.68958L12.1281 9.91208C12.1611 9.93704 12.1848 9.97099 12.196 10.0092C12.2072 10.0474 12.2053 10.0879 12.1906 10.125L11.8281 11.0583L14.5125 10.6179C14.5563 10.6109 14.6011 10.6131 14.6439 10.6244C14.6866 10.6357 14.726 10.6559 14.7593 10.6833C14.7926 10.7107 14.8189 10.7447 14.8362 10.7829C14.8535 10.8211 14.8614 10.8624 14.8594 10.9038L14.7188 13.4208H15.2813Z" fill="white"/>
</g>
<defs>
<clipPath id="clip0_776_990">
<rect y="0.5" width="30" height="14" rx="2" fill="white"/>
</clipPath>
</defs>
</svg>
