<svg width="280" height="60" viewBox="0 0 280 60" fill="none" xmlns="http://www.w3.org/2000/svg">
<path d="M60.8975 21.6475H72.0246V23.2807H67.4811V38.6809H65.4432V23.2807H60.8998L60.8975 21.6475Z" fill="#F4F4F4"/>
<path d="M86.5603 21.6475V38.6809H84.5223V30.9803H76.685V38.6809H74.6471V21.6475H76.685V29.3471H84.5201V21.6475H86.5603Z" fill="#F4F4F4"/>
<path d="M100.471 21.6475V23.2807H93.5154V29.2058H99.9841V30.8391H93.5154V37.0454H100.934V38.6793H91.4752V21.6475H100.471Z" fill="#F4F4F4"/>
<path d="M118.136 30.1167H122.564V38.6801H121.451L121.104 36.6503C120.657 37.4084 120.012 38.0288 119.239 38.444C118.467 38.8592 117.596 39.0532 116.721 39.0053C111.482 39.0053 110.44 35.6226 110.44 30.1387C110.44 24.6093 111.691 21.3193 116.954 21.3193C120.501 21.3193 121.868 23.0923 122.216 25.7753L120.57 26.0792C120.291 24.282 119.272 22.9996 116.954 22.9996C113.128 22.9996 112.479 25.6364 112.479 30.163C112.479 34.806 113.128 37.3257 116.768 37.3257C119.296 37.3257 120.57 35.9021 120.756 33.826V31.4924H118.136V30.1167Z" fill="#F4F4F4"/>
<path d="M132.37 21.6475C136.613 21.6475 137.563 24.3305 137.563 26.6611C137.563 28.4842 136.959 30.5353 134.642 31.3275C135.139 31.735 135.524 32.2656 135.755 32.8673L138.259 38.6778H136.08L133.739 33.1477C133.23 31.958 132.511 31.7044 131.259 31.6542H129.289V38.6778H127.251V21.6475H132.37ZM132.278 30.024C134.735 30.024 135.522 28.3437 135.522 26.6641C135.522 24.9845 134.734 23.2807 132.278 23.2807H129.288V30.0256L132.278 30.024Z" fill="#F4F4F4"/>
<path d="M151.079 21.6475V23.2807H144.125V29.2058H150.592V30.8391H144.125V37.0454H151.543V38.6793H142.084V21.6475H151.079Z" fill="#F4F4F4"/>
<path d="M161.233 21.6475L166.774 38.6809H164.756L163.111 33.5472H156.666L155.02 38.6809H153.003L158.522 21.6475H161.233ZM157.173 31.914H162.575L159.89 23.4675L157.173 31.914Z" fill="#F4F4F4"/>
<path d="M166.519 21.6475H177.647V23.2807H173.103V38.6809H171.065V23.2807H166.521L166.519 21.6475Z" fill="#F4F4F4"/>
<path d="M196.379 26.0806C196.1 24.2833 195.081 23.001 192.762 23.001C188.937 23.001 188.288 25.6378 188.288 30.1416C188.288 34.6926 188.937 37.3285 192.762 37.3285C195.404 37.3285 196.379 35.6725 196.448 33.5015L198.117 33.5949C197.909 36.8158 196.586 39.0081 192.759 39.0081C187.497 39.0081 186.245 35.6953 186.245 30.1416C186.245 24.6122 187.497 21.3223 192.759 21.3223C196.306 21.3223 197.673 23.0952 198.022 25.7783L196.379 26.0806Z" fill="#F4F4F4"/>
<path d="M207.946 21.6475L213.487 38.6809H211.471L209.824 33.5472H203.379L201.734 38.6809H199.717L205.235 21.6475H207.946ZM203.89 31.914H209.292L206.602 23.4675L203.89 31.914Z" fill="#F4F4F4"/>
<path d="M213.233 21.6475H224.36V23.2807H219.816V38.6809H217.778V23.2807H213.235L213.233 21.6475Z" fill="#F4F4F4"/>
<path d="M232.335 21.6475L237.877 38.6809H235.859L234.214 33.5472H227.769L226.123 38.6809H224.106L229.623 21.6475H232.335ZM228.278 31.914H233.681L230.991 23.4675L228.278 31.914Z" fill="#F4F4F4"/>
<path d="M240.728 21.6475H242.765V37.0469H249.072V38.6809H240.726L240.728 21.6475Z" fill="#F4F4F4"/>
<path d="M251.161 30.164C251.161 25.24 252.39 21.3203 257.791 21.3203C263.169 21.3203 264.445 25.24 264.445 30.164C264.445 35.1335 263.169 39.0062 257.791 39.0062C252.39 39.0062 251.161 35.1335 251.161 30.164ZM262.407 30.164C262.407 26.1972 261.5 23.0006 257.793 23.0006C254.061 23.0006 253.204 26.1972 253.204 30.164C253.204 34.1309 254.061 37.3267 257.793 37.3267C261.5 37.3267 262.404 34.1271 262.404 30.164H262.407Z" fill="#F4F4F4"/>
<path d="M275.571 30.1167H280V38.6801H278.887L278.54 36.6503C278.093 37.4083 277.448 38.0286 276.676 38.4438C275.903 38.8589 275.033 39.0531 274.158 39.0053C268.919 39.0053 267.875 35.6226 267.875 30.1387C267.875 24.6093 269.127 21.3193 274.39 21.3193C277.937 21.3193 279.304 23.0923 279.652 25.7753L278.006 26.0792C277.728 24.282 276.707 22.9996 274.39 22.9996C270.564 22.9996 269.916 25.6364 269.916 30.163C269.916 34.806 270.564 37.3257 274.205 37.3257C276.731 37.3257 278.006 35.9021 278.192 33.826V31.4924H275.571V30.1167Z" fill="#F4F4F4"/>
<path d="M25.0115 32.9908V60L18.4867 55.7277V29.4551L25.0115 32.9908Z" fill="url(#paint0_linear_30_1120)"/>
<path d="M25.0115 47.156V59.999L0 45.3143V14.6847L25.0115 0V12.7946L10.9037 21.082V38.8685L18.0293 43.0365L25.0115 47.156Z" fill="#187F88"/>
<path d="M27.1864 47.2044V59.999L52.1501 45.3131L52.1978 14.6836L27.1864 0V12.7946L41.2681 21.0809V38.8673L27.1864 47.2044Z" fill="#187F88"/>
<defs>
<linearGradient id="paint0_linear_30_1120" x1="18.4867" y1="37.5087" x2="22.1457" y2="42.7584" gradientUnits="userSpaceOnUse">
<stop stop-color="#1F9B9F"/>
<stop offset="0.666667" stop-color="#1F9B9F"/>
<stop offset="0.666767" stop-color="#007A8A"/>
</linearGradient>
</defs>
</svg>
