<svg width="491" height="596" viewBox="0 0 491 596" fill="none" xmlns="http://www.w3.org/2000/svg">
<path d="M521.564 479.774C516.244 499.441 500.792 514.821 481.027 520.117L247.712 582.634C227.947 587.93 206.875 582.336 192.435 567.964L21.9314 398.268C7.49145 383.896 1.87321 362.929 7.19279 343.262L70.0049 111.05C75.3247 91.3827 90.7759 76.0024 110.541 70.7063L343.857 8.18961C363.622 2.89352 384.693 8.48759 399.134 22.8597L569.637 192.556C584.077 206.928 589.695 227.895 584.376 247.561L521.564 479.774Z" fill="url(#paint0_linear_620_29)" fill-opacity="0.1" stroke="url(#paint1_linear_620_29)" stroke-width="2"/>
<defs>
<linearGradient id="paint0_linear_620_29" x1="364.628" y1="552.342" x2="226.94" y2="38.482" gradientUnits="userSpaceOnUse">
<stop stop-color="#D9D9D9"/>
<stop offset="1" stop-color="#D9D9D9" stop-opacity="0"/>
</linearGradient>
<linearGradient id="paint1_linear_620_29" x1="210.923" y1="592.531" x2="419.393" y2="73.8878" gradientUnits="userSpaceOnUse">
<stop stop-color="#6A6A6A"/>
<stop offset="1" stop-color="#6A6A6A" stop-opacity="0"/>
</linearGradient>
</defs>
</svg>
