<svg width="260" height="60" viewBox="0 0 260 60" fill="none" xmlns="http://www.w3.org/2000/svg">
<rect width="80" height="60" rx="10" fill="#333333"/>
<path d="M55 30C55 32.08 54.6 34.03 53.8 35.85C53.02 37.67 51.95 39.255 50.59 40.605C49.23 41.955 47.64 43.03 45.82 43.83C44 44.61 42.06 45 40 45C37.92 45 35.97 44.61 34.15 43.83C32.33 43.03 30.745 41.955 29.395 40.605C28.045 39.255 26.97 37.67 26.17 35.85C25.39 34.01 25 32.06 25 30C25 27.92 25.39 25.97 26.17 24.15C26.97 22.33 28.045 20.745 29.395 19.395C30.745 18.045 32.33 16.97 34.15 16.17C35.97 15.39 37.92 15 40 15C42.06 15 44 15.39 45.82 16.17C47.64 16.97 49.23 18.045 50.59 19.395C51.95 20.745 53.02 22.33 53.8 24.15C54.6 25.97 55 27.92 55 30Z" fill="#A4A4A4"/>
<path d="M40 15C39.16 15 38.34 15.07 37.54 15.21C36.74 15.35 35.96 15.545 35.2 15.795C34.44 16.045 33.71 16.36 33.01 16.74C32.33 17.1 31.67 17.52 31.03 18H31.06C31.3 18.24 31.55 18.455 31.81 18.645C32.07 18.835 32.3 19.07 32.5 19.35L29.38 19.41C29.14 19.65 28.91 19.905 28.69 20.175C28.47 20.445 28.25 20.72 28.03 21H33.52C33.74 21.24 33.945 21.48 34.135 21.72C34.325 21.96 34.51 22.21 34.69 22.47H27.04C26.9 22.71 26.765 22.955 26.635 23.205C26.505 23.455 26.38 23.71 26.26 23.97H35.56C35.68 24.23 35.795 24.47 35.905 24.69C36.015 24.91 36.12 25.15 36.22 25.41H25.72C25.64 25.67 25.565 25.935 25.495 26.205C25.425 26.475 25.36 26.74 25.3 27H36.64C36.7 27.26 36.75 27.515 36.79 27.765C36.83 28.015 36.87 28.26 36.91 28.5H25.09C25.05 28.74 25.025 28.985 25.015 29.235C25.005 29.485 25 29.74 25 30H37C37 30.26 36.99 30.515 36.97 30.765C36.95 31.015 36.92 31.26 36.88 31.5H25.09C25.11 31.76 25.14 32.015 25.18 32.265C25.22 32.515 25.26 32.76 25.3 33H36.64C36.58 33.24 36.515 33.485 36.445 33.735C36.375 33.985 36.3 34.23 36.22 34.47H25.69C25.77 34.73 25.855 34.985 25.945 35.235C26.035 35.485 26.14 35.73 26.26 35.97H35.56C35.44 36.25 35.305 36.505 35.155 36.735C35.005 36.965 34.85 37.21 34.69 37.47H27.01C27.17 37.73 27.33 37.985 27.49 38.235C27.65 38.485 27.82 38.73 28 38.97L33.52 39.06C33.3 39.34 33.045 39.58 32.755 39.78C32.465 39.98 32.18 40.21 31.9 40.47C31.92 40.47 31.705 40.465 31.255 40.455C30.805 40.445 30.13 40.44 29.23 40.44C29.91 41.14 30.66 41.77 31.48 42.33C32.28 42.89 33.135 43.37 34.045 43.77C34.955 44.17 35.91 44.47 36.91 44.67C37.91 44.89 38.94 45 40 45C42.08 45 44.03 44.61 45.85 43.83C47.67 43.03 49.255 41.955 50.605 40.605C51.955 39.255 53.03 37.67 53.83 35.85C54.61 34.03 55 32.08 55 30C55 27.92 54.61 25.97 53.83 24.15C53.03 22.33 51.955 20.745 50.605 19.395C49.255 18.045 47.67 16.97 45.85 16.17C44.03 15.39 42.08 15 40 15Z" fill="#F4F4F4"/>
<rect x="90" width="80" height="60" rx="10" fill="#333333"/>
<path d="M123.533 22.668L121.174 37.3018H124.939L127.297 22.668C127.297 22.668 127.102 22.668 126.711 22.668C126.311 22.668 125.876 22.668 125.408 22.668C124.939 22.668 124.509 22.668 124.119 22.668C123.728 22.668 123.533 22.668 123.533 22.668ZM134.871 28.6299C134.216 28.3076 133.701 28.0195 133.325 27.7656C132.949 27.5117 132.761 27.2188 132.761 26.8867C132.761 26.584 132.935 26.3032 133.281 26.0444C133.628 25.7856 134.177 25.6562 134.929 25.6562C135.535 25.6465 136.067 25.7002 136.526 25.8174C136.985 25.9346 137.385 26.0615 137.727 26.1982L138.064 26.3594L138.577 23.2832C138.206 23.1465 137.732 23.0122 137.156 22.8804C136.58 22.7485 135.93 22.6826 135.208 22.6826C134.27 22.6826 133.416 22.7998 132.644 23.0342C131.873 23.2588 131.206 23.5786 130.645 23.9937C130.083 24.4087 129.646 24.9043 129.333 25.4805C129.021 26.0566 128.86 26.6914 128.85 27.3848C128.85 27.8926 128.953 28.3467 129.158 28.7471C129.363 29.1475 129.629 29.5039 129.956 29.8164C130.283 30.1289 130.642 30.3975 131.033 30.6221C131.423 30.8564 131.794 31.0566 132.146 31.2227C132.878 31.5742 133.389 31.8794 133.677 32.1382C133.965 32.397 134.109 32.6826 134.109 32.9951C134.099 33.4639 133.855 33.8105 133.376 34.0352C132.898 34.2598 132.385 34.3721 131.838 34.3721C131.096 34.3721 130.476 34.3135 129.978 34.1963C129.48 34.0791 128.923 33.8887 128.308 33.625L127.825 33.4053L127.297 36.584C127.737 36.7793 128.335 36.9526 129.092 37.104C129.849 37.2554 130.647 37.3311 131.487 37.3311C132.473 37.3311 133.367 37.2187 134.167 36.9941C134.968 36.7695 135.654 36.4448 136.226 36.02C136.797 35.5952 137.239 35.085 137.551 34.4893C137.864 33.8936 138.025 33.2295 138.035 32.4971C138.035 32.0869 137.971 31.7061 137.844 31.3545C137.727 30.9932 137.537 30.6538 137.273 30.3364C137.009 30.019 136.682 29.7188 136.292 29.4355C135.891 29.1523 135.417 28.8838 134.871 28.6299ZM148.215 22.7119H145.3C144.851 22.7119 144.46 22.7925 144.128 22.9536C143.796 23.1147 143.533 23.4248 143.337 23.8838L137.756 37.3018H141.697L142.781 34.4014H147.205L147.761 37.3164H151.248L148.215 22.7119ZM143.879 31.4717C143.899 31.4717 143.992 31.2275 144.158 30.7393C144.314 30.2412 144.485 29.6968 144.67 29.106C144.856 28.5151 145.022 27.9707 145.168 27.4727C145.325 26.9746 145.403 26.7256 145.403 26.7256L146.545 31.4717C146.545 31.4717 146.194 31.4717 145.491 31.4717C144.788 31.4717 144.25 31.4717 143.879 31.4717ZM118.04 22.668L114.348 32.6143L113.953 30.6514C113.787 30.085 113.533 29.5137 113.191 28.9375C112.849 28.3613 112.449 27.812 111.99 27.2896C111.531 26.7671 111.028 26.2812 110.481 25.832C109.924 25.3926 109.348 25.0166 108.752 24.7041L112.122 37.2871H116.106L122.024 22.668H118.04Z" fill="#F4F4F4"/>
<path d="M117.087 24.5576C116.951 24.001 116.665 23.5493 116.23 23.2026C115.796 22.856 115.266 22.6777 114.641 22.668H108.811L108.752 22.9463C109.895 23.2197 110.979 23.6299 112.004 24.1768C113.03 24.7236 113.962 25.3486 114.802 26.0518C115.642 26.7549 116.37 27.5117 116.985 28.3223C117.59 29.1426 118.049 29.958 118.362 30.7686L117.087 24.5576Z" fill="#6A6A6A"/>
<rect x="180" width="80" height="60" rx="10" fill="#333333"/>
<path d="M198.313 27.7236C198.313 27.4502 198.419 27.2554 198.631 27.1392C198.843 27.0229 199.133 26.9648 199.502 26.9648C200.036 26.9648 200.617 27.0435 201.246 27.2007C201.875 27.3579 202.456 27.5801 202.989 27.8672V24.5654C202.401 24.3467 201.82 24.186 201.246 24.0835C200.671 23.981 200.09 23.9297 199.502 23.9297C198.792 23.9297 198.142 24.0186 197.554 24.1963C196.98 24.374 196.484 24.6338 196.067 24.9756C195.65 25.3174 195.333 25.7344 195.114 26.2266C194.881 26.7188 194.765 27.2725 194.765 27.8877C194.765 28.8584 195.045 29.583 195.606 30.0615C196.153 30.54 196.761 30.9126 197.431 31.1792C198.101 31.4458 198.709 31.6816 199.256 31.8867C199.817 32.0918 200.097 32.3994 200.097 32.8096C200.097 33.1377 199.971 33.3633 199.718 33.4863C199.465 33.6094 199.14 33.6709 198.744 33.6709C198.169 33.6709 197.537 33.5649 196.847 33.353C196.156 33.1411 195.517 32.8711 194.929 32.543V35.8857C195.572 36.1729 196.218 36.3779 196.867 36.501C197.517 36.624 198.142 36.6855 198.744 36.6855C199.468 36.6855 200.138 36.5967 200.753 36.4189C201.355 36.2412 201.871 35.9849 202.302 35.6499C202.732 35.3149 203.071 34.9014 203.317 34.4092C203.549 33.917 203.666 33.3564 203.666 32.7275C203.666 31.6885 203.385 30.916 202.825 30.4102C202.264 29.9043 201.649 29.5181 200.979 29.2515C200.309 28.9849 199.701 28.7627 199.154 28.585C198.593 28.4072 198.313 28.1201 198.313 27.7236ZM207.788 21.1201L204.363 21.8584V33.0762C204.363 34.1152 204.708 34.9766 205.398 35.6602C206.089 36.3438 206.954 36.6855 207.993 36.6855C208.567 36.6855 209.059 36.6411 209.469 36.5522C209.879 36.4634 210.201 36.3574 210.433 36.2344V33.3838C210.214 33.4658 209.715 33.5376 208.936 33.5991C208.157 33.6606 207.767 33.1719 207.767 32.1328V27.1494H210.433V24.1758H207.767L207.788 21.1201ZM214.801 25.2012L214.576 24.1758H211.541V36.4395H215.047V28.1133C215.458 27.5801 215.95 27.3066 216.524 27.293C217.098 27.2793 217.495 27.3135 217.713 27.3955V24.1758C217.495 24.0801 217.057 24.0391 216.401 24.0527C215.745 24.0664 215.211 24.4492 214.801 25.2012ZM218.575 24.1758H222.082V36.4395H218.575V24.1758ZM218.575 23.1094L222.082 22.3506V19.5L218.575 20.2383V23.1094ZM229.403 23.9297C228.719 23.9297 228.152 24.0562 227.701 24.3091C227.25 24.562 226.901 24.7979 226.655 25.0166L226.47 24.1553H223.394V40.5L226.901 39.7617V35.7832C227.161 35.9746 227.485 36.1694 227.875 36.3677C228.265 36.5659 228.767 36.665 229.382 36.665C230.011 36.665 230.62 36.542 231.208 36.2959C231.782 36.0361 232.291 35.6396 232.735 35.1064C233.18 34.5732 233.532 33.9033 233.792 33.0967C234.051 32.29 234.181 31.3262 234.181 30.2051C234.181 29.1934 234.044 28.2979 233.771 27.5186C233.511 26.7393 233.159 26.083 232.715 25.5498C232.271 25.0166 231.761 24.6133 231.187 24.3398C230.613 24.0664 230.018 23.9297 229.403 23.9297ZM228.562 33.5889C228.152 33.5889 227.817 33.5239 227.557 33.394C227.297 33.2642 227.079 33.1104 226.901 32.9326V27.7236C227.079 27.5186 227.301 27.3545 227.567 27.2314C227.834 27.1084 228.166 27.0469 228.562 27.0469C229.205 27.0469 229.724 27.3613 230.121 27.9902C230.517 28.6191 230.715 29.3916 230.715 30.3076C230.715 31.251 230.517 32.0337 230.121 32.6558C229.724 33.2778 229.205 33.5889 228.562 33.5889ZM245.235 30.3486C245.235 29.4463 245.125 28.6055 244.907 27.8262C244.688 27.0469 244.367 26.3701 243.943 25.7959C243.519 25.2217 242.993 24.7637 242.364 24.4219C241.735 24.0938 241.003 23.9297 240.169 23.9297C239.335 23.9297 238.59 24.0938 237.934 24.4219C237.264 24.7637 236.7 25.2217 236.242 25.7959C235.784 26.3701 235.432 27.0469 235.186 27.8262C234.94 28.6055 234.817 29.4395 234.817 30.3281C234.817 31.3809 234.96 32.3037 235.248 33.0967C235.535 33.8896 235.931 34.5493 236.437 35.0757C236.943 35.6021 237.551 36.002 238.262 36.2754C238.973 36.5352 239.759 36.665 240.621 36.665C241.455 36.665 242.189 36.5796 242.825 36.4087C243.461 36.2378 244.018 36.0225 244.497 35.7627V32.9531C244.018 33.1992 243.502 33.3906 242.948 33.5273C242.395 33.6641 241.769 33.7324 241.072 33.7324C240.388 33.7324 239.783 33.582 239.257 33.2812C238.73 32.9805 238.426 32.4199 238.344 31.5996H245.214C245.214 31.5039 245.218 31.3125 245.225 31.0254C245.231 30.7383 245.235 30.5127 245.235 30.3486ZM238.303 29.0156C238.303 28.2227 238.501 27.6519 238.898 27.3032C239.294 26.9546 239.711 26.7803 240.149 26.7803C240.586 26.7803 240.993 26.9546 241.369 27.3032C241.745 27.6519 241.933 28.2227 241.933 29.0156H238.303Z" fill="#F4F4F4"/>
</svg>
