<svg width="188" height="40" viewBox="0 0 188 40" fill="none" xmlns="http://www.w3.org/2000/svg">
<path d="M40.8883 14.4327H48.3594V15.5216H45.3088V25.7885H43.9405V15.5216H40.8899L40.8883 14.4327Z" fill="#F4F4F4"/>
<path d="M58.119 14.4327V25.7885H56.7507V20.6547H51.4885V25.7885H50.1202V14.4327H51.4885V19.5659H56.7492V14.4327H58.119Z" fill="#F4F4F4"/>
<path d="M67.4588 14.4327V15.5216H62.7889V19.4717H67.1322V20.5606H62.7889V24.6982H67.77V25.7875H61.4191V14.4327H67.4588Z" fill="#F4F4F4"/>
<path d="M79.3198 20.0788H82.2932V25.7879H81.5458L81.3128 24.4347C81.0125 24.9401 80.5793 25.3537 80.0606 25.6305C79.5418 25.9073 78.9574 26.0366 78.37 26.0046C74.8523 26.0046 74.1524 23.7495 74.1524 20.0935C74.1524 16.4072 74.9925 14.2138 78.5263 14.2138C80.908 14.2138 81.8256 15.3958 82.0594 17.1846L80.9541 17.3872C80.767 16.189 80.0825 15.3341 78.5263 15.3341C75.9576 15.3341 75.5215 17.0919 75.5215 20.1097C75.5215 23.2051 75.9576 24.8849 78.4014 24.8849C80.0985 24.8849 80.9541 23.9358 81.079 22.5518V20.996H79.3198V20.0788Z" fill="#F4F4F4"/>
<path d="M88.8772 14.4327C91.7257 14.4327 92.3635 16.2214 92.3635 17.7752C92.3635 18.9907 91.958 20.358 90.4026 20.8862C90.7365 21.1579 90.9944 21.5116 91.15 21.9127L92.8311 25.7865H91.3677L89.7962 22.0997C89.4543 21.3065 88.9714 21.1374 88.1313 21.104H86.8082V25.7865H85.4398V14.4327H88.8772ZM88.8151 20.0172C90.4647 20.0172 90.9937 18.897 90.9937 17.7772C90.9937 16.6575 90.464 15.5216 88.8151 15.5216H86.8074V20.0182L88.8151 20.0172Z" fill="#F4F4F4"/>
<path d="M101.439 14.4327V15.5216H96.7696V19.4717H101.111V20.5606H96.7696V24.6982H101.75V25.7875H95.3991V14.4327H101.439Z" fill="#F4F4F4"/>
<path d="M108.257 14.4327L111.977 25.7885H110.622L109.518 22.366H105.19L104.085 25.7885H102.73L106.436 14.4327H108.257ZM105.531 21.2772H109.157L107.355 15.6461L105.531 21.2772Z" fill="#F4F4F4"/>
<path d="M111.806 14.4327H119.277V15.5216H116.226V25.7885H114.858V15.5216H111.807L111.806 14.4327Z" fill="#F4F4F4"/>
<path d="M131.854 17.3876C131.667 16.1893 130.983 15.3345 129.426 15.3345C126.858 15.3345 126.422 17.0923 126.422 20.095C126.422 23.129 126.858 24.8863 129.426 24.8863C131.2 24.8863 131.854 23.7823 131.901 22.3349L133.022 22.3972C132.881 24.5445 131.994 26.006 129.424 26.006C125.891 26.006 125.05 23.7975 125.05 20.095C125.05 16.4087 125.891 14.2153 129.424 14.2153C131.805 14.2153 132.724 15.3973 132.957 17.186L131.854 17.3876Z" fill="#F4F4F4"/>
<path d="M139.621 14.4327L143.341 25.7885H141.987L140.882 22.366H136.555L135.45 25.7885H134.096L137.8 14.4327H139.621ZM136.897 21.2772H140.525L138.719 15.6461L136.897 21.2772Z" fill="#F4F4F4"/>
<path d="M143.171 14.4327H150.642V15.5216H147.591V25.7885H146.223V15.5216H143.172L143.171 14.4327Z" fill="#F4F4F4"/>
<path d="M155.996 14.4327L159.717 25.7885H158.363L157.258 22.366H152.931L151.825 25.7885H150.471L154.176 14.4327H155.996ZM153.273 21.2772H156.9L155.094 15.6461L153.273 21.2772Z" fill="#F4F4F4"/>
<path d="M161.632 14.4327H163V24.6992H167.234V25.7885H161.631L161.632 14.4327Z" fill="#F4F4F4"/>
<path d="M168.637 20.1104C168.637 16.8277 169.462 14.2146 173.088 14.2146C176.699 14.2146 177.556 16.8277 177.556 20.1104C177.556 23.4235 176.699 26.0054 173.088 26.0054C169.462 26.0054 168.637 23.4235 168.637 20.1104ZM176.187 20.1104C176.187 17.4659 175.579 15.3348 173.09 15.3348C170.584 15.3348 170.008 17.4659 170.008 20.1104C170.008 22.7551 170.584 24.8857 173.09 24.8857C175.579 24.8857 176.186 22.7525 176.186 20.1104H176.187Z" fill="#F4F4F4"/>
<path d="M185.027 20.0788H188V25.7879H187.253L187.02 24.4347C186.719 24.94 186.287 25.3535 185.768 25.6303C185.249 25.9071 184.665 26.0366 184.078 26.0046C180.56 26.0046 179.859 23.7495 179.859 20.0935C179.859 16.4072 180.699 14.2138 184.233 14.2138C186.615 14.2138 187.532 15.3958 187.766 17.1846L186.661 17.3872C186.475 16.189 185.789 15.3341 184.233 15.3341C181.664 15.3341 181.229 17.0919 181.229 20.1097C181.229 23.2051 181.664 24.8849 184.109 24.8849C185.805 24.8849 186.661 23.9358 186.786 22.5518V20.996H185.027V20.0788Z" fill="#F4F4F4"/>
<path d="M16.7934 21.9935V40L12.4125 37.1517V19.6364L16.7934 21.9935Z" fill="url(#paint0_linear_245_443)"/>
<path d="M16.7934 31.4379V40L0 30.21V9.79L16.7934 0V8.5299L7.32104 14.0549V25.9127L12.1054 28.6915L16.7934 31.4379Z" fill="#187F88"/>
<path d="M18.2537 31.4701V40L35.0151 30.2093L35.0471 9.78922L18.2537 0V8.52989L27.7086 14.0542V25.912L18.2537 31.4701Z" fill="#187F88"/>
<defs>
<linearGradient id="paint0_linear_245_443" x1="12.4125" y1="25.0055" x2="14.8458" y2="28.5216" gradientUnits="userSpaceOnUse">
<stop stop-color="#1F9B9F"/>
<stop offset="0.666667" stop-color="#1F9B9F"/>
<stop offset="0.666767" stop-color="#007A8A"/>
</linearGradient>
</defs>
</svg>
